<svg width="50" height="50" viewBox="0 0 50 50" fill="none" xmlns="http://www.w3.org/2000/svg">
<rect width="50" height="50" rx="4" fill="#F4F4FF"/>
<path d="M34.4275 17.5228L34.4267 17.522C33.8466 16.9573 33.1622 16.5081 32.4106 16.1993L32.4093 16.1988C31.6296 15.8772 30.793 15.7124 29.9482 15.7144L29.9459 15.7144C28.7578 15.7144 27.6009 16.0374 26.5969 16.6455L26.5969 16.6456C26.3567 16.7911 26.1293 16.9504 25.9143 17.1235L25.287 17.6287L24.6598 17.1235C24.4448 16.9504 24.2174 16.7911 23.9772 16.6456L23.9771 16.6455C22.9732 16.0374 21.8163 15.7144 20.6282 15.7144C19.7709 15.7144 18.9449 15.877 18.1647 16.1988L18.1636 16.1993C17.4091 16.5095 16.7305 16.9548 16.147 17.5223L16.1456 17.5236C15.5673 18.0839 15.1057 18.7511 14.7866 19.4872L34.4275 17.5228ZM34.4275 17.5228C35.0055 18.0841 35.4674 18.7516 35.7877 19.4877M34.4275 17.5228L35.7877 19.4877M35.7877 19.4877C36.1195 20.2535 36.288 21.0634 36.2856 21.8977V21.9006C36.2856 22.6813 36.1251 23.5168 35.7885 24.3908L35.7876 24.3931C35.5088 25.1223 35.095 25.8989 34.5536 26.7013C33.6973 27.9689 32.5015 29.3171 30.9873 30.7053C28.4692 33.012 25.9749 34.6061 25.8863 34.6625L25.8861 34.6626L25.2856 35.0451L24.6852 34.6626L24.6773 34.6577L24.6694 34.6528C24.6697 34.653 24.6288 34.6273 24.544 34.572C24.4633 34.5194 24.3492 34.4439 24.2062 34.3473C23.9204 34.154 23.5206 33.8769 23.0446 33.5288C22.0908 32.8316 20.8387 31.8559 19.5844 30.7056L19.5843 30.7055C18.0699 29.3173 16.874 27.969 16.0176 26.7013L35.7877 19.4877ZM14.2856 21.9006C14.2856 21.0641 14.4546 20.2532 14.7866 19.4873L14.7827 24.3908C14.4462 23.5168 14.2856 22.6813 14.2856 21.9006ZM16.0176 26.7013C15.4776 25.9008 15.0654 25.1234 14.7828 24.3908L16.0176 26.7013Z" stroke="#090937" stroke-width="2"/>
</svg>
