<svg width="65" height="32" viewBox="0 0 102 32" fill="none" xmlns="http://www.w3.org/2000/svg">
<g filter="url(#filter0_d_1_202)">
<g clip-path="url(#clip0_1_202)">
<path d="M22.6667 22.6667L18.6791 18.672M20.8889 13.3333C20.8889 15.3372 20.0929 17.259 18.6759 18.6759C17.259 20.0929 15.3372 20.8889 13.3333 20.8889C11.3295 20.8889 9.40768 20.0929 7.99074 18.6759C6.5738 17.259 5.77777 15.3372 5.77777 13.3333C5.77777 11.3295 6.5738 9.40768 7.99074 7.99074C9.40768 6.5738 11.3295 5.77777 13.3333 5.77777C15.3372 5.77777 17.259 6.5738 18.6759 7.99074C20.0929 9.40768 20.8889 11.3295 20.8889 13.3333V13.3333Z" stroke="#090937" stroke-opacity="0.4" stroke-width="2" stroke-linecap="round"/>
</g>
<path d="M40.4 21.8C39.3933 21.8 38.4867 21.6333 37.68 21.3C36.88 20.96 36.2167 20.48 35.69 19.86C35.17 19.24 34.83 18.5033 34.67 17.65L36.17 17.4C36.41 18.3333 36.9167 19.0667 37.69 19.6C38.4633 20.1267 39.3867 20.39 40.46 20.39C41.1667 20.39 41.8 20.28 42.36 20.06C42.92 19.8333 43.36 19.5133 43.68 19.1C44 18.6867 44.16 18.1967 44.16 17.63C44.16 17.2567 44.0933 16.94 43.96 16.68C43.8267 16.4133 43.65 16.1933 43.43 16.02C43.21 15.8467 42.97 15.7033 42.71 15.59C42.45 15.47 42.1967 15.3733 41.95 15.3L38.3 14.21C37.86 14.0833 37.4533 13.9233 37.08 13.73C36.7067 13.53 36.38 13.2933 36.1 13.02C35.8267 12.74 35.6133 12.4133 35.46 12.04C35.3067 11.6667 35.23 11.24 35.23 10.76C35.23 9.94667 35.4433 9.24333 35.87 8.65C36.2967 8.05667 36.88 7.6 37.62 7.28C38.36 6.96 39.2033 6.80333 40.15 6.81C41.11 6.81 41.9667 6.98 42.72 7.32C43.48 7.66 44.1067 8.14667 44.6 8.78C45.0933 9.40667 45.42 10.15 45.58 11.01L44.04 11.29C43.94 10.6633 43.71 10.12 43.35 9.66C42.99 9.2 42.53 8.84667 41.97 8.6C41.4167 8.34667 40.8067 8.21667 40.14 8.21C39.4933 8.21 38.9167 8.32 38.41 8.54C37.91 8.75333 37.5133 9.04667 37.22 9.42C36.9267 9.79333 36.78 10.22 36.78 10.7C36.78 11.1867 36.9133 11.5767 37.18 11.87C37.4533 12.1633 37.7867 12.3933 38.18 12.56C38.58 12.7267 38.9667 12.8633 39.34 12.97L42.16 13.8C42.4533 13.88 42.7967 13.9967 43.19 14.15C43.59 14.2967 43.9767 14.51 44.35 14.79C44.73 15.0633 45.0433 15.4233 45.29 15.87C45.5367 16.3167 45.66 16.8833 45.66 17.57C45.66 18.2367 45.5267 18.8333 45.26 19.36C45 19.8867 44.63 20.33 44.15 20.69C43.6767 21.05 43.12 21.3233 42.48 21.51C41.8467 21.7033 41.1533 21.8 40.4 21.8ZM52.2942 21.8C51.2409 21.8 50.3276 21.5667 49.5542 21.1C48.7876 20.6333 48.1909 19.9767 47.7642 19.13C47.3376 18.2833 47.1242 17.29 47.1242 16.15C47.1242 14.97 47.3342 13.95 47.7542 13.09C48.1742 12.23 48.7642 11.5667 49.5242 11.1C50.2909 10.6333 51.1942 10.4 52.2342 10.4C53.3009 10.4 54.2109 10.6467 54.9642 11.14C55.7176 11.6267 56.2876 12.3267 56.6742 13.24C57.0609 14.1533 57.2376 15.2433 57.2042 16.51H55.7042V15.99C55.6776 14.59 55.3742 13.5333 54.7942 12.82C54.2209 12.1067 53.3809 11.75 52.2742 11.75C51.1142 11.75 50.2242 12.1267 49.6042 12.88C48.9909 13.6333 48.6842 14.7067 48.6842 16.1C48.6842 17.46 48.9909 18.5167 49.6042 19.27C50.2242 20.0167 51.1009 20.39 52.2342 20.39C53.0076 20.39 53.6809 20.2133 54.2542 19.86C54.8342 19.5 55.2909 18.9833 55.6242 18.31L56.9942 18.84C56.5676 19.78 55.9376 20.51 55.1042 21.03C54.2776 21.5433 53.3409 21.8 52.2942 21.8ZM48.1642 16.51V15.28H56.4142V16.51H48.1642ZM62.3181 21.8C61.5048 21.8 60.8215 21.6533 60.2681 21.36C59.7215 21.0667 59.3115 20.6767 59.0381 20.19C58.7648 19.7033 58.6281 19.1733 58.6281 18.6C58.6281 18.0133 58.7448 17.5133 58.9781 17.1C59.2181 16.68 59.5415 16.3367 59.9481 16.07C60.3615 15.8033 60.8381 15.6 61.3781 15.46C61.9248 15.3267 62.5281 15.21 63.1881 15.11C63.8548 15.0033 64.5048 14.9133 65.1381 14.84C65.7781 14.76 66.3381 14.6833 66.8181 14.61L66.2981 14.93C66.3181 13.8633 66.1115 13.0733 65.6781 12.56C65.2448 12.0467 64.4915 11.79 63.4181 11.79C62.6781 11.79 62.0515 11.9567 61.5381 12.29C61.0315 12.6233 60.6748 13.15 60.4681 13.87L59.0381 13.45C59.2848 12.4833 59.7815 11.7333 60.5281 11.2C61.2748 10.6667 62.2448 10.4 63.4381 10.4C64.4248 10.4 65.2615 10.5867 65.9481 10.96C66.6415 11.3267 67.1315 11.86 67.4181 12.56C67.5515 12.8733 67.6381 13.2233 67.6781 13.61C67.7181 13.9967 67.7381 14.39 67.7381 14.79V21.5H66.4281V18.79L66.8081 18.95C66.4415 19.8767 65.8715 20.5833 65.0981 21.07C64.3248 21.5567 63.3981 21.8 62.3181 21.8ZM62.4881 20.53C63.1748 20.53 63.7748 20.4067 64.2881 20.16C64.8015 19.9133 65.2148 19.5767 65.5281 19.15C65.8415 18.7167 66.0448 18.23 66.1381 17.69C66.2181 17.3433 66.2615 16.9633 66.2681 16.55C66.2748 16.13 66.2781 15.8167 66.2781 15.61L66.8381 15.9C66.3381 15.9667 65.7948 16.0333 65.2081 16.1C64.6281 16.1667 64.0548 16.2433 63.4881 16.33C62.9281 16.4167 62.4215 16.52 61.9681 16.64C61.6615 16.7267 61.3648 16.85 61.0781 17.01C60.7915 17.1633 60.5548 17.37 60.3681 17.63C60.1881 17.89 60.0981 18.2133 60.0981 18.6C60.0981 18.9133 60.1748 19.2167 60.3281 19.51C60.4881 19.8033 60.7415 20.0467 61.0881 20.24C61.4415 20.4333 61.9081 20.53 62.4881 20.53ZM70.3414 21.5V10.7H71.6614V13.3L71.4014 12.96C71.5214 12.64 71.6781 12.3467 71.8714 12.08C72.0647 11.8067 72.2747 11.5833 72.5014 11.41C72.7814 11.1633 73.1081 10.9767 73.4814 10.85C73.8547 10.7167 74.2314 10.64 74.6114 10.62C74.9914 10.5933 75.3381 10.62 75.6514 10.7V12.08C75.2581 11.98 74.8281 11.9567 74.3614 12.01C73.8947 12.0633 73.4647 12.25 73.0714 12.57C72.7114 12.85 72.4414 13.1867 72.2614 13.58C72.0814 13.9667 71.9614 14.38 71.9014 14.82C71.8414 15.2533 71.8114 15.6833 71.8114 16.11V21.5H70.3414ZM81.8331 21.8C80.7465 21.8 79.8265 21.5567 79.0731 21.07C78.3198 20.5833 77.7465 19.9133 77.3531 19.06C76.9665 18.2 76.7665 17.2133 76.7531 16.1C76.7665 14.9667 76.9731 13.9733 77.3731 13.12C77.7731 12.26 78.3498 11.5933 79.1031 11.12C79.8565 10.64 80.7698 10.4 81.8431 10.4C82.9365 10.4 83.8865 10.6667 84.6931 11.2C85.5065 11.7333 86.0631 12.4633 86.3631 13.39L84.9231 13.85C84.6698 13.2033 84.2665 12.7033 83.7131 12.35C83.1665 11.99 82.5398 11.81 81.8331 11.81C81.0398 11.81 80.3831 11.9933 79.8631 12.36C79.3431 12.72 78.9565 13.2233 78.7031 13.87C78.4498 14.5167 78.3198 15.26 78.3131 16.1C78.3265 17.3933 78.6265 18.4333 79.2131 19.22C79.7998 20 80.6731 20.39 81.8331 20.39C82.5665 20.39 83.1898 20.2233 83.7031 19.89C84.2231 19.55 84.6165 19.0567 84.8831 18.41L86.3631 18.85C85.9631 19.81 85.3765 20.5433 84.6031 21.05C83.8298 21.55 82.9065 21.8 81.8331 21.8ZM96.2273 21.5V15.99C96.2273 15.39 96.1707 14.84 96.0573 14.34C95.944 13.8333 95.7607 13.3933 95.5073 13.02C95.2607 12.64 94.9373 12.3467 94.5373 12.14C94.144 11.9333 93.664 11.83 93.0973 11.83C92.5773 11.83 92.1173 11.92 91.7173 12.1C91.324 12.28 90.9907 12.54 90.7173 12.88C90.4507 13.2133 90.2473 13.62 90.1073 14.1C89.9673 14.58 89.8973 15.1267 89.8973 15.74L88.8573 15.51C88.8573 14.4033 89.0507 13.4733 89.4373 12.72C89.824 11.9667 90.3573 11.3967 91.0373 11.01C91.7173 10.6233 92.4973 10.43 93.3773 10.43C94.024 10.43 94.5873 10.53 95.0673 10.73C95.554 10.93 95.964 11.2 96.2973 11.54C96.6373 11.88 96.9107 12.27 97.1173 12.71C97.324 13.1433 97.474 13.6067 97.5673 14.1C97.6607 14.5867 97.7073 15.0733 97.7073 15.56V21.5H96.2273ZM88.4173 21.5V7.1H89.7473V15.23H89.8973V21.5H88.4173Z" fill="#090937" fill-opacity="0.4"/>
</g>
<defs>
<filter id="filter0_d_1_202" x="0" y="0.5" width="103" height="35" filterUnits="userSpaceOnUse" color-interpolation-filters="sRGB">
<feFlood flood-opacity="0" result="BackgroundImageFix"/>
<feColorMatrix in="SourceAlpha" type="matrix" values="0 0 0 0 0 0 0 0 0 0 0 0 0 0 0 0 0 0 127 0" result="hardAlpha"/>
<feOffset dy="4"/>
<feGaussianBlur stdDeviation="2"/>
<feComposite in2="hardAlpha" operator="out"/>
<feColorMatrix type="matrix" values="0 0 0 0 0 0 0 0 0 0 0 0 0 0 0 0 0 0 0.25 0"/>
<feBlend mode="normal" in2="BackgroundImageFix" result="effect1_dropShadow_1_202"/>
<feBlend mode="normal" in="SourceGraphic" in2="effect1_dropShadow_1_202" result="shape"/>
</filter>
<clipPath id="clip0_1_202">
<rect width="20" height="20" fill="white" transform="translate(4 4)"/>
</clipPath>
</defs>
</svg>
